<svg xmlns="http://www.w3.org/2000/svg" xmlns:xlink="http://www.w3.org/1999/xlink" width="40" zoomAndPan="magnify" viewBox="0 0 30 30.000001" height="40" preserveAspectRatio="xMidYMid meet" version="1.0"><defs><clipPath id="id1"><path d="M 2.460938 7 L 22 7 L 22 27 L 2.460938 27 Z M 2.460938 7 " clip-rule="nonzero"/></clipPath><clipPath id="id2"><path d="M 11 16.476562 L 27.863281 16.476562 L 27.863281 28.882812 L 11 28.882812 Z M 11 16.476562 " clip-rule="nonzero"/></clipPath></defs><path fill="#ffffff" d="M 8.527344 4.9375 C 8.527344 2.957031 10.15625 1.347656 12.164062 1.347656 C 14.171875 1.347656 15.804688 2.957031 15.804688 4.9375 L 15.804688 7.332031 L 17.015625 7.332031 L 17.015625 4.9375 C 17.015625 2.292969 14.84375 0.152344 12.164062 0.152344 C 9.484375 0.152344 7.3125 2.292969 7.3125 4.9375 L 7.3125 7.332031 L 8.527344 7.332031 L 8.527344 4.9375 " fill-opacity="1" fill-rule="nonzero"/><g clip-path="url(#id1)"><path fill="#ffffff" d="M 21.867188 15.710938 L 21.867188 8.53125 C 21.867188 7.867188 21.324219 7.332031 20.652344 7.332031 L 17.015625 7.332031 L 17.015625 9.128906 C 17.015625 9.460938 16.746094 9.726562 16.410156 9.726562 C 16.074219 9.726562 15.804688 9.460938 15.804688 9.128906 L 15.804688 7.332031 L 8.527344 7.332031 L 8.527344 9.128906 C 8.527344 9.460938 8.253906 9.726562 7.917969 9.726562 C 7.582031 9.726562 7.3125 9.460938 7.3125 9.128906 L 7.3125 7.332031 L 3.671875 7.332031 C 3.003906 7.332031 2.460938 7.867188 2.460938 8.53125 L 2.460938 25.289062 C 2.460938 25.949219 3.003906 26.488281 3.671875 26.488281 L 9.972656 26.488281 L 11.066406 15.714844 L 21.867188 15.710938 " fill-opacity="1" fill-rule="nonzero"/></g><g clip-path="url(#id2)"><path fill="#ffffff" d="M 19.441406 24.09375 C 16.761719 24.09375 14.589844 21.949219 14.589844 19.304688 C 14.589844 18.976562 14.859375 18.707031 15.195312 18.707031 C 15.53125 18.707031 15.804688 18.976562 15.804688 19.304688 C 15.804688 21.285156 17.433594 22.894531 19.441406 22.894531 C 21.449219 22.894531 23.082031 21.285156 23.082031 19.304688 C 23.082031 18.976562 23.351562 18.707031 23.683594 18.707031 C 24.019531 18.707031 24.292969 18.976562 24.292969 19.304688 C 24.292969 21.949219 22.121094 24.09375 19.441406 24.09375 Z M 26.777344 17.503906 C 26.746094 17.179688 26.445312 16.910156 26.113281 16.910156 L 12.769531 16.910156 C 12.4375 16.910156 12.136719 17.179688 12.101562 17.503906 L 11.011719 28.289062 C 10.980469 28.613281 11.222656 28.882812 11.558594 28.882812 L 27.324219 28.882812 C 27.65625 28.882812 27.90625 28.613281 27.867188 28.289062 L 26.777344 17.503906 " fill-opacity="1" fill-rule="nonzero"/></g></svg>