<svg xmlns="http://www.w3.org/2000/svg" xmlns:xlink="http://www.w3.org/1999/xlink" width="40" zoomAndPan="magnify" viewBox="0 0 30 30.000001" height="40" preserveAspectRatio="xMidYMid meet" version="1.0"><defs><clipPath id="id1"><path d="M 0.484375 1 L 29.515625 1 L 29.515625 27.851562 L 0.484375 27.851562 Z M 0.484375 1 " clip-rule="nonzero"/></clipPath></defs><g clip-path="url(#id1)"><path fill="#ffffff" d="M 5.421875 16.226562 L 11.441406 16.226562 C 11.625 16.226562 11.773438 16.375 11.773438 16.554688 C 11.773438 16.734375 11.625 16.882812 11.441406 16.882812 L 5.421875 16.882812 C 5.238281 16.882812 5.09375 16.734375 5.09375 16.554688 C 5.09375 16.375 5.238281 16.226562 5.421875 16.226562 Z M 5.421875 14.839844 L 11.441406 14.839844 C 11.625 14.839844 11.773438 14.988281 11.773438 15.167969 C 11.773438 15.351562 11.625 15.496094 11.441406 15.496094 L 5.421875 15.496094 C 5.238281 15.496094 5.09375 15.351562 5.09375 15.167969 C 5.09375 14.988281 5.238281 14.839844 5.421875 14.839844 Z M 21.210938 12.386719 L 22.472656 12.386719 L 22.472656 15.769531 L 21.210938 15.769531 Z M 15.382812 10.960938 L 16.640625 10.960938 L 16.640625 15.769531 L 15.382812 15.769531 Z M 24.125 9.824219 L 25.382812 9.824219 L 25.382812 15.769531 L 24.125 15.769531 Z M 18.296875 9.074219 L 19.558594 9.074219 L 19.558594 15.769531 L 18.296875 15.769531 Z M 25.640625 6.234375 L 25.59375 7.5 L 25.277344 7.261719 L 23.144531 10.089844 C 22.710938 10.671875 21.882812 10.789062 21.300781 10.359375 C 21.171875 10.261719 21.058594 10.144531 20.972656 10.007812 L 19.535156 7.742188 C 19.339844 7.4375 18.933594 7.347656 18.625 7.539062 C 18.566406 7.574219 18.511719 7.621094 18.46875 7.675781 L 16.613281 9.894531 L 16.105469 9.472656 L 17.960938 7.253906 C 18.429688 6.699219 19.261719 6.621094 19.820312 7.085938 C 19.925781 7.171875 20.019531 7.277344 20.09375 7.394531 L 21.53125 9.65625 C 21.726562 9.964844 22.132812 10.054688 22.441406 9.859375 C 22.511719 9.816406 22.570312 9.765625 22.617188 9.699219 L 24.75 6.867188 L 24.433594 6.632812 Z M 8.761719 4.839844 C 11.070312 5.019531 12.792969 7.023438 12.609375 9.316406 C 12.570312 9.824219 12.4375 10.320312 12.214844 10.78125 L 8.761719 8.796875 Z M 8.101562 4.839844 L 8.101562 9.175781 L 11.886719 11.347656 C 10.574219 13.242188 7.964844 13.722656 6.058594 12.417969 C 4.152344 11.117188 3.667969 8.523438 4.980469 6.628906 C 5.695312 5.597656 6.84375 4.9375 8.101562 4.839844 Z M 1.058594 1.121094 C 0.742188 1.121094 0.484375 1.375 0.484375 1.6875 L 0.484375 20.953125 C 0.484375 21.265625 0.742188 21.519531 1.054688 21.519531 C 1.058594 21.519531 1.058594 21.519531 1.058594 21.519531 L 12.09375 21.519531 C 12.414062 21.519531 12.671875 21.777344 12.671875 22.089844 L 12.671875 23.125 C 12.671875 25.011719 11.128906 26.542969 9.230469 26.542969 L 8.957031 26.542969 L 8.957031 27.710938 L 21.042969 27.710938 L 21.042969 26.542969 L 20.769531 26.542969 C 18.871094 26.542969 17.328125 25.011719 17.328125 23.125 L 17.328125 22.089844 C 17.328125 21.777344 17.585938 21.519531 17.90625 21.519531 L 28.945312 21.519531 C 29.257812 21.519531 29.515625 21.265625 29.515625 20.953125 L 29.515625 1.6875 C 29.515625 1.375 29.257812 1.121094 28.945312 1.121094 L 1.058594 1.121094 " fill-opacity="1" fill-rule="nonzero"/></g></svg>