<svg xmlns="http://www.w3.org/2000/svg" xmlns:xlink="http://www.w3.org/1999/xlink" width="40" zoomAndPan="magnify" viewBox="0 0 30 30.000001" height="40" preserveAspectRatio="xMidYMid meet" version="1.0"><defs><clipPath id="id1"><path d="M 0.484375 0 L 29.515625 0 L 29.515625 29.03125 L 0.484375 29.03125 Z M 0.484375 0 " clip-rule="nonzero"/></clipPath></defs><g clip-path="url(#id1)"><path fill="#ffffff" d="M 27.503906 13.132812 L 16.011719 13.132812 L 16.011719 8.382812 L 27.503906 8.382812 Z M 25.269531 27.023438 L 16.011719 27.023438 L 16.011719 15.136719 L 25.269531 15.136719 Z M 4.738281 15.136719 L 13.996094 15.136719 L 13.996094 27.023438 L 4.738281 27.023438 Z M 2.503906 8.382812 L 13.996094 8.382812 L 13.996094 13.132812 L 2.503906 13.132812 Z M 6.910156 2.480469 C 7.175781 2.363281 7.449219 2.304688 7.71875 2.304688 C 8.195312 2.304688 8.65625 2.484375 9.035156 2.832031 L 12.757812 6.234375 L 7.699219 6.234375 C 6.613281 6.234375 5.730469 5.355469 5.730469 4.273438 C 5.730469 3.472656 6.171875 2.800781 6.910156 2.480469 Z M 20.972656 2.832031 C 21.566406 2.289062 22.363281 2.15625 23.101562 2.480469 C 23.839844 2.800781 24.28125 3.472656 24.28125 4.273438 C 24.28125 5.355469 23.394531 6.234375 22.308594 6.234375 L 17.253906 6.234375 Z M 28.511719 6.375 L 25.6875 6.375 C 26.074219 5.765625 26.296875 5.046875 26.296875 4.273438 C 26.296875 2.675781 25.382812 1.285156 23.910156 0.644531 C 22.441406 0 20.789062 0.273438 19.609375 1.355469 L 15.003906 5.5625 L 10.402344 1.355469 C 9.21875 0.273438 7.570312 0 6.097656 0.644531 C 4.625 1.285156 3.710938 2.675781 3.710938 4.273438 C 3.710938 5.046875 3.933594 5.765625 4.320312 6.375 L 1.496094 6.375 C 0.9375 6.375 0.488281 6.824219 0.488281 7.378906 L 0.488281 14.132812 C 0.488281 14.6875 0.9375 15.136719 1.496094 15.136719 L 2.722656 15.136719 L 2.722656 28.027344 C 2.722656 28.578125 3.171875 29.027344 3.730469 29.027344 L 26.277344 29.027344 C 26.835938 29.027344 27.289062 28.578125 27.289062 28.027344 L 27.289062 15.136719 L 28.511719 15.136719 C 29.070312 15.136719 29.523438 14.6875 29.523438 14.132812 L 29.523438 7.378906 C 29.523438 6.824219 29.070312 6.375 28.511719 6.375 " fill-opacity="1" fill-rule="nonzero"/></g></svg>