<svg xmlns="http://www.w3.org/2000/svg" xmlns:xlink="http://www.w3.org/1999/xlink" width="40" zoomAndPan="magnify" viewBox="0 0 30 30.000001" height="40" preserveAspectRatio="xMidYMid meet" version="1.0"><defs><clipPath id="id1"><path d="M 0.484375 2.140625 L 29.515625 2.140625 L 29.515625 26.820312 L 0.484375 26.820312 Z M 0.484375 2.140625 " clip-rule="nonzero"/></clipPath></defs><g clip-path="url(#id1)"><path fill="#ffffff" d="M 23.449219 24.570312 C 24.644531 24.554688 26.351562 23.257812 26.828125 21.457031 C 26.03125 21.457031 25.234375 21.441406 24.433594 21.457031 C 21.003906 21.527344 17.570312 21.609375 14.140625 21.667969 C 13.710938 21.675781 13.453125 21.785156 13.253906 22.199219 C 12.832031 23.066406 12.34375 23.898438 11.667969 24.773438 C 15.695312 24.703125 19.574219 24.621094 23.449219 24.570312 Z M 3.167969 9.113281 C 3.71875 13.09375 4.394531 17.050781 5.714844 20.863281 C 6.105469 21.992188 6.542969 23.097656 7.292969 24.046875 C 7.984375 24.917969 8.542969 24.972656 9.382812 24.230469 C 9.652344 23.996094 9.894531 23.71875 10.121094 23.4375 C 10.855469 22.519531 11.394531 21.480469 11.917969 20.433594 C 12.144531 19.980469 12.472656 19.707031 13.011719 19.695312 C 18.042969 19.589844 23.078125 19.46875 28.109375 19.363281 C 29.070312 19.34375 29.503906 19.886719 29.257812 20.792969 C 28.929688 21.988281 28.453125 23.121094 27.710938 24.125 C 26.597656 25.628906 25.160156 26.554688 23.238281 26.578125 C 18.503906 26.644531 13.765625 26.679688 9.03125 26.785156 C 7.53125 26.816406 6.457031 26.210938 5.613281 25.046875 C 4.574219 23.617188 3.945312 21.992188 3.425781 20.328125 C 1.800781 15.101562 1.140625 9.703125 0.617188 4.285156 C 0.484375 2.921875 0.707031 2.6875 2.117188 2.644531 C 7.636719 2.480469 13.160156 2.328125 18.683594 2.175781 C 19.707031 2.148438 19.980469 2.4375 20.070312 3.472656 C 20.371094 6.886719 20.847656 10.269531 21.675781 13.597656 C 22.042969 15.058594 22.523438 16.480469 23.183594 17.941406 C 22.6875 17.941406 22.363281 17.972656 21.890625 17.953125 C 21.132812 17.921875 20.871094 17.738281 20.640625 17.082031 C 19.578125 14.039062 18.972656 10.894531 18.527344 7.714844 C 18.363281 6.546875 18.238281 5.371094 18.09375 4.175781 C 12.921875 4.324219 7.8125 4.476562 2.628906 4.628906 C 2.8125 6.171875 2.964844 7.644531 3.167969 9.113281 " fill-opacity="1" fill-rule="nonzero"/></g><path fill="#ffffff" d="M 5.820312 9.066406 L 14.839844 8.710938 C 15.148438 8.699219 15.390625 8.4375 15.378906 8.125 L 15.375 7.984375 C 15.359375 7.671875 15.097656 7.429688 14.789062 7.445312 L 5.769531 7.800781 C 5.460938 7.8125 5.214844 8.074219 5.226562 8.386719 L 5.234375 8.527344 C 5.246094 8.835938 5.507812 9.082031 5.820312 9.066406 " fill-opacity="1" fill-rule="nonzero"/><path fill="#ffffff" d="M 6.757812 13.261719 L 14.386719 12.957031 C 14.695312 12.945312 14.9375 12.683594 14.925781 12.375 L 14.921875 12.230469 C 14.910156 11.921875 14.644531 11.679688 14.335938 11.691406 L 6.707031 11.992188 C 6.394531 12.007812 6.152344 12.269531 6.167969 12.578125 L 6.171875 12.722656 C 6.183594 13.03125 6.445312 13.273438 6.757812 13.261719 " fill-opacity="1" fill-rule="nonzero"/><path fill="#ffffff" d="M 7.867188 17.28125 L 14.28125 17.027344 C 14.59375 17.015625 14.835938 16.753906 14.824219 16.445312 L 14.820312 16.300781 C 14.808594 15.992188 14.542969 15.75 14.230469 15.761719 L 7.816406 16.015625 C 7.503906 16.027344 7.261719 16.289062 7.273438 16.601562 L 7.28125 16.742188 C 7.292969 17.054688 7.554688 17.292969 7.867188 17.28125 " fill-opacity="1" fill-rule="nonzero"/></svg>